Coordinates
version=1
nRows=11
nColumns=46
inDegrees=yes

Units are S.I. units (second, meters, Newtons, ...)
Angles are in degrees.

endheader
time	pelvis_tilt	pelvis_list	pelvis_rotation	pelvis_tx	pelvis_ty	pelvis_tz	bb_angle	bb_tx	bb_ty	bb_tz	hip_flexion_r	hip_adduction_r	hip_rotation_r	knee_angle_r	knee_angle_r_beta	ankle_angle_r	subtalar_angle_r	mtp_angle_r	crank_angle_r	hip_flexion_l	hip_adduction_l	hip_rotation_l	knee_angle_l	knee_angle_l_beta	ankle_angle_l	subtalar_angle_l	mtp_angle_l	crank_angle_l	lumbar_extension	lumbar_bending	lumbar_rotation	arm_flex_r	arm_add_r	arm_rot_r	elbow_flex_r	pro_sup_r	wrist_flex_r	wrist_dev_r	arm_flex_l	arm_add_l	arm_rot_l	elbow_flex_l	pro_sup_l	wrist_flex_l	wrist_dev_l
      7.50000000	    -32.34456845	     -8.26757300	    -14.72948151	      0.45011951	      1.18504011	     -0.29160430	      0.00000000	      0.50000000	      0.00000000	      0.25000000	     80.12194883	     10.08254397	     -2.13912182	     95.22167103	      1.66193168	      5.01967936	     -5.26057103	      0.00000000	      0.00000000	     28.50854034	    -20.16987497	    -13.73649220	     30.71001565	      0.53599089	    -21.13983768	      4.45885616	      0.00000000	      0.00000000	    -67.92897972	     -2.22143720	      6.61813639	     50.76250575	    -40.32599768	     36.37923893	    111.39446699	     51.92533371	      0.00000000	      0.00000000	     14.16516588	    -25.08737016	     -2.86484695	    113.18575818	     54.67955790	      0.00000000	      0.00000000
      7.50500000	    -32.70019293	     -7.99216653	    -14.35915415	      0.44980092	      1.18718510	     -0.29080938	      0.00000000	      0.50000000	      0.00000000	      0.25000000	     79.49544030	     10.02536692	     -1.85704643	     93.00726398	      1.62328298	      6.02681037	     -5.32015400	      0.00000000	      0.00000000	     30.16483242	    -19.94917905	    -12.22750101	     33.06862068	      0.57715631	    -21.93617877	      3.14721320	      0.00000000	      0.00000000	    -67.94664545	     -2.25111094	      6.60739685	     50.57273147	    -40.49100536	     35.77264005	    111.67086198	     51.89509135	      0.00000000	      0.00000000	     14.91699938	    -25.34168415	     -2.43492083	    113.29287223	     54.74721893	      0.00000000	      0.00000000
      7.51000000	    -33.05569798	     -7.51717406	    -13.97645760	      0.44973530	      1.18895304	     -0.28984521	      0.00000000	      0.50000000	      0.00000000	      0.25000000	     78.78376511	      9.92241376	     -1.43076171	     90.68654782	      1.58277885	      6.81230448	     -6.07210153	      0.00000000	      0.00000000	     31.88719748	    -19.58821998	    -11.00921505	     35.53919684	      0.62027600	    -22.64001079	      2.39042119	      0.00000000	      0.00000000	    -67.80012877	     -2.59258406	      8.41164593	     47.18819794	    -42.65582080	     31.74829218	    113.79374332	     51.76087693	      0.00000000	      0.00000000	     18.08628997	    -24.80189827	      1.22447093	    111.54208680	     54.92883220	      0.00000000	      0.00000000
      7.51500000	    -33.24246960	     -6.95332392	    -13.70960722	      0.45005480	      1.19081898	     -0.28896020	      0.00000000	      0.50000000	      0.00000000	      0.25000000	     77.77851629	      9.84427497	     -0.87296571	     88.18697476	      1.53915307	      7.48897366	     -6.64811654	      0.00000000	      0.00000000	     33.35453518	    -19.13355643	    -10.03744765	     38.02853817	      0.66372320	    -23.16415678	      1.72598348	      0.00000000	      0.00000000	    -67.83746416	     -2.87971584	      7.97673670	     47.01985230	    -42.59757105	     31.31966487	    113.98521177	     51.73361584	      0.00000000	      0.00000000	     18.61611231	    -25.05949205	      1.42308412	    111.59167487	     54.95943353	      0.00000000	      0.00000000
      7.52000000	    -33.30966501	     -6.22284301	    -13.54593015	      0.45047852	      1.19258982	     -0.28753002	      0.00000000	      0.50000000	      0.00000000	      0.25000000	     76.61079939	      9.85976563	     -0.08488475	     85.58309688	      1.49370682	      7.92763625	     -7.30009968	      0.00000000	      0.00000000	     34.68419460	    -18.62060297	     -9.40464959	     40.59965018	      0.70859757	    -23.51221082	      1.39269967	      0.00000000	      0.00000000	    -67.94258691	     -3.44037698	      7.41692073	     46.63380705	    -42.56678513	     30.99708331	    114.00257122	     51.69961671	      0.00000000	      0.00000000	     19.21171711	    -25.34930043	      1.55035348	    111.63911531	     54.97669056	      0.00000000	      0.00000000
      7.52500000	    -33.34098557	     -5.52553656	    -13.18638897	      0.45071175	      1.19405094	     -0.28633164	      0.00000000	      0.50000000	      0.00000000	      0.25000000	     75.39336750	      9.63950279	      0.56805671	     82.92216713	      1.44726484	      8.07136144	     -8.17853778	      0.00000000	      0.00000000	     36.13101123	    -18.03797703	     -8.68174823	     43.26319006	      0.75508511	    -23.91829515	      0.98330827	      0.00000000	      0.00000000	    -67.96008357	     -3.82596437	      6.82515855	     46.18911760	    -42.46710387	     30.51498283	    114.09322773	     51.66152801	      0.00000000	      0.00000000	     19.83701551	    -25.74632336	      1.77866708	    111.68250662	     55.00498964	      0.00000000	      0.00000000
      7.53000000	    -33.70202140	     -4.93129871	    -12.67610249	      0.45085627	      1.19484609	     -0.28522496	      0.00000000	      0.50000000	      0.00000000	      0.25000000	     74.47779243	      9.29539897	      1.00733250	     80.13261553	      1.39857798	      7.53785051	     -9.40396124	      0.00000000	      0.00000000	     38.00752435	    -17.43749638	     -7.56889734	     45.88328214	      0.80081434	    -24.41061667	      0.47806147	      0.00000000	      0.00000000	    -67.65301127	     -4.03378723	      6.54528834	     44.91296118	    -42.29908865	     29.03275608	    114.33787767	     51.54102670	      0.00000000	      0.00000000	     20.38836691	    -26.21026138	      2.74698583	    111.55626217	     55.10319162	      0.00000000	      0.00000000
      7.53500000	    -33.56964883	     -4.03954736	    -12.36335307	      0.45137301	      1.19607002	     -0.28391225	      0.00000000	      0.50000000	      0.00000000	      0.25000000	     73.08473823	      8.93388391	      1.89060516	     77.41124093	      1.35108103	      7.10209802	     -9.99662488	      0.00000000	      0.00000000	     39.12540500	    -16.64658523	     -7.17440917	     48.22584352	      0.84169975	    -24.92922955	      0.09149034	      0.00000000	      0.00000000	    -67.74299945	     -4.82829874	      7.47976650	     41.33898492	    -43.55033136	     24.94481093	    116.03556069	     51.37100775	      0.00000000	      0.00000000	     23.17002273	    -25.81654435	      5.65419112	    110.11396169	     55.19444396	      0.00000000	      0.00000000
      7.54000000	    -33.52038644	     -3.29253917	    -11.88998731	      0.45163031	      1.19691825	     -0.28285670	      0.00000000	      0.50000000	      0.00000000	      0.25000000	     71.81331862	      8.42528937	      2.55983541	     74.76804664	      1.30494859	      6.44015925	    -10.60039533	      0.00000000	      0.00000000	     40.40893004	    -15.86323910	     -6.53258523	     50.56910441	      0.88259737	    -25.39090433	     -0.27703779	      0.00000000	      0.00000000	    -67.74552601	     -5.14815103	      6.69649331	     40.92515857	    -43.31825442	     24.66472987	    116.02343874	     51.33883383	      0.00000000	      0.00000000	     23.60792866	    -26.28826443	      5.82337791	    110.10716992	     55.20714447	      0.00000000	      0.00000000
      7.54500000	    -33.33085607	     -2.38467233	    -11.49147965	      0.45192171	      1.19772028	     -0.28181157	      0.00000000	      0.50000000	      0.00000000	      0.25000000	     70.50211046	      7.82337856	      3.39759369	     72.29846925	      1.26184633	      5.67291878	    -10.80041267	      0.00000000	      0.00000000	     41.43091899	    -14.94798191	     -6.15255920	     52.77889215	      0.92116544	    -25.60179701	     -0.46880348	      0.00000000	      0.00000000	    -67.85188428	     -5.68434448	      5.77642713	     40.43743170	    -43.13735727	     24.41327108	    115.96860162	     51.30689913	      0.00000000	      0.00000000	     24.13836435	    -26.63824501	      5.92840960	    110.12632233	     55.21432915	      0.00000000	      0.00000000
      7.55000000	    -33.08685382	     -1.50006355	    -11.11297524	      0.45223926	      1.19847065	     -0.28068445	      0.00000000	      0.50000000	      0.00000000	      0.25000000	     69.13396866	      7.25465310	      4.30279599	     69.88747693	      1.21976658	      5.07768688	    -10.70265158	      0.00000000	      0.00000000	     42.33524348	    -14.08320997	     -5.88690197	     54.90266587	      0.95823229	    -25.78794387	     -0.47592057	      0.00000000	      0.00000000	    -67.97950377	     -6.18308849	      4.92766678	     40.10095563	    -43.10673941	     24.29259150	    115.94606311	     51.29472616	      0.00000000	      0.00000000	     24.33478673	    -26.73239686	      6.06087299	    110.05570756	     55.21612185	      0.00000000	      0.00000000
